<svg width="30" height="31" viewBox="0 0 30 31" fill="none" xmlns="http://www.w3.org/2000/svg">
<path d="M1.9 27.8484V27.8485C2.009 28.1602 2.31574 28.3414 2.34327 28.3453C2.35273 28.3463 2.36697 28.3474 2.37183 28.3477C2.37928 28.3482 2.38534 28.3483 2.38711 28.3484L2.38724 28.3484L2.399 28.3486L2.42102 28.3489L2.49661 28.3492L2.79268 28.3499C3.0553 28.3504 3.44905 28.3509 3.97385 28.3513C5.0235 28.3523 6.59789 28.3532 8.69696 28.3541C12.8951 28.356 19.1924 28.3579 27.5886 28.3598H27.5887C27.9004 28.2508 28.0816 27.944 28.0855 27.9165C28.0865 27.907 28.0877 27.8928 28.088 27.8879C28.0884 27.8805 28.0886 27.8744 28.0886 27.8726L28.0886 27.8725L28.0889 27.8608L28.0891 27.8387L28.0894 27.7632L28.0902 27.4671C28.0906 27.2045 28.0911 26.8107 28.0916 26.2859C28.0925 25.2363 28.0934 23.6619 28.0944 21.5628C28.0962 17.3646 28.0981 11.0674 28.1 2.67113V2.67102C27.991 2.35934 27.6842 2.17815 27.6567 2.17423C27.6472 2.17324 27.633 2.17209 27.6282 2.17179C27.6239 2.17154 27.62 2.17138 27.6172 2.17128C27.615 2.1712 27.6134 2.17115 27.6127 2.17113L27.601 2.17089L27.579 2.17068L27.5034 2.17032L27.2073 2.16961C26.9447 2.16914 26.5509 2.16867 26.0261 2.1682C24.9765 2.16727 23.4021 2.16633 21.303 2.16539C17.1049 2.16352 10.8076 2.16164 2.41136 2.15977H2.41125C2.09958 2.26879 1.91839 2.57554 1.91446 2.60306C1.91347 2.61252 1.91232 2.62675 1.91202 2.63161C1.91159 2.63912 1.91142 2.64524 1.91137 2.64693L1.91137 2.64702L1.91113 2.65877L1.91091 2.68079L1.91055 2.75637L1.90984 3.05245C1.90938 3.31506 1.90891 3.70882 1.90844 4.23362C1.9075 5.28326 1.90656 6.85765 1.90563 8.95673C1.90375 13.1549 1.90188 19.4521 1.9 27.8484ZM4.595 6.96983V6.96851C4.595 6.69537 4.6488 6.42489 4.75333 6.17253C4.85786 5.92018 5.01107 5.69088 5.20422 5.49773L4.85067 5.14418L5.20422 5.49773C5.39736 5.30459 5.62666 5.15138 5.87902 5.04685C6.13138 4.94232 6.40185 4.88852 6.675 4.88852C6.94815 4.88852 7.21862 4.94232 7.47098 5.04685C7.72334 5.15138 7.95264 5.30459 8.14578 5.49773C8.33893 5.69088 8.49214 5.92018 8.59667 6.17253C8.7012 6.42489 8.755 6.69536 8.755 6.96852C8.755 8.1169 7.82058 9.04852 6.675 9.04852C5.52166 9.04852 4.59198 8.11693 4.595 6.96983ZM25.0675 17.971V25.3235H21.62V18.8598C21.62 18.0509 21.618 17.0012 21.283 16.1552C21.1098 15.7179 20.8392 15.3096 20.4158 15.0141C19.9914 14.7179 19.4561 14.5648 18.8063 14.5648C18.1628 14.5648 17.6192 14.6907 17.1708 14.9389C16.7195 15.1888 16.3945 15.5461 16.1659 15.9603C15.7215 16.7653 15.6362 17.7966 15.6362 18.7398V25.3235H12.1888V12.006H15.46V13.4635V13.9635H15.96H16.02H16.3209L16.4618 13.6977C16.9758 12.7277 18.262 11.6498 20.2313 11.6498C22.3598 11.6498 23.5089 12.3399 24.1653 13.3814C24.855 14.4757 25.0675 16.0546 25.0675 17.971ZM2.41125 0.759766H27.5887C28.6439 0.759766 29.5 1.61591 29.5 2.67102V27.8485C29.5 28.9036 28.6439 29.7598 27.5887 29.7598H2.41125C1.35614 29.7598 0.5 28.9036 0.5 27.8485V2.67102C0.5 1.61591 1.35614 0.759766 2.41125 0.759766ZM4.9475 12.006H8.39875V25.3235H4.9475V12.006Z" fill="white" fill-opacity="0.9" stroke="black"/>
</svg>
